<?xml version="1.0" standalone="no"?>
<!DOCTYPE svg PUBLIC "-//W3C//DTD SVG 20010904//EN"
 "http://www.w3.org/TR/2001/REC-SVG-20010904/DTD/svg10.dtd">
<svg version="1.0" xmlns="http://www.w3.org/2000/svg"
 width="295.000000pt" height="295.000000pt" viewBox="0 0 295.000000 295.000000"
 preserveAspectRatio="xMidYMid meet">

<g transform="translate(0.000000,295.000000) scale(0.100000,-0.100000)"
fill="#000000" stroke="none">
<path d="M1317 2938 c-624 -64 -1156 -545 -1281 -1159 -101 -494 47 -983 403
-1340 211 -210 440 -335 739 -401 132 -30 443 -32 572 -5 598 126 1036 560
1166 1157 26 121 27 448 1 570 -138 649 -659 1119 -1308 1179 -128 12 -167 12
-292 -1z m265 -756 c60 -29 138 -99 165 -146 10 -18 12 -18 59 -2 66 23 178
31 243 17 148 -32 272 -142 304 -271 5 -18 21 -31 62 -49 80 -34 148 -99 187
-179 31 -62 33 -74 33 -167 0 -90 -3 -106 -29 -160 -38 -76 -105 -143 -181
-181 l-60 -29 -901 -3 c-889 -2 -903 -2 -957 18 -38 14 -69 36 -102 71 -62 66
-78 108 -79 199 -1 89 22 147 79 205 40 39 126 85 161 85 18 0 23 8 29 45 10
67 31 111 78 162 73 79 199 123 301 104 34 -6 49 -5 51 3 2 6 9 28 15 49 32
104 137 208 252 249 84 30 207 21 290 -20z"/>
<path d="M972 1780 c-69 -35 -119 -86 -159 -162 -25 -47 -28 -63 -28 -148 0
-83 3 -101 27 -145 32 -62 104 -130 166 -158 29 -12 76 -22 122 -25 117 -6
171 18 290 134 l96 93 79 -79 c45 -46 104 -93 139 -112 56 -30 68 -33 151 -33
76 0 99 4 146 26 71 33 125 87 158 158 22 48 26 69 26 146 -1 114 -25 173 -99
243 -67 64 -129 87 -231 87 -120 0 -161 -19 -275 -131 l-96 -94 -84 86 c-112
114 -172 144 -286 144 -70 0 -89 -4 -142 -30z m221 -126 c36 -18 187 -163 187
-180 0 -19 -156 -163 -194 -179 -119 -50 -265 47 -266 176 0 19 12 59 26 88
48 96 159 139 247 95z m719 6 c83 -23 131 -91 131 -185 0 -94 -48 -162 -131
-185 -87 -24 -142 0 -243 104 -41 43 -75 80 -77 84 -1 4 33 42 76 85 101 100
155 121 244 97z"/>
</g>
</svg>
